#!OML:ASF I:\Actors\actors\Patient Classification 2\Patient 1\Session 1\actor1.ASF
:FULLY-SPECIFIED
:DEGREES
194
root -0.608988 18.74 5.92411 2.86289 -1.01298 -5.16431
lowerback 6.38413 0.749237 -0.160252
upperback 1.90877 0.9339 -2.58335
thorax -1.57092 0.468533 -2.64165
lowerneck -12.8035 -2.75188 0.241775
upperneck 33.5652 -6.01561 5.41506
head 13.6842 -1.9 1.18546
rclavicle 2.68359e-014 -1.90833e-014
rhumerus 2.06254 37.8568 -37.1192
rradius 104.55
rwrist -62.8079
rhand 5.29542 -49.762
rfingers 7.12502
rthumb 30.6517 -77.2293
lclavicle 2.68359e-014 -1.90833e-014
lhumerus -24.4496 -31.4751 99.0566
lradius 88.0689
lwrist 3.93754
lhand -24.3191 -52.2931
lfingers 7.12502
lthumb 2.16918 -22.3244
rfemur 0 0 0
rtibia 0
rfoot 0 0
rtoes 0
lfemur -6.76127 -5.68305 -8.80456
ltibia 23.7946
lfoot -23.1234 12.4728
ltoes -55.3861
195
root -0.607083 18.7388 5.93185 2.81227 -1.07095 -5.09024
lowerback 6.42513 0.748316 -0.202105
upperback 1.91817 0.929473 -2.5835
thorax -1.58493 0.46629 -2.61853
lowerneck -12.7838 -2.72961 0.265667
upperneck 33.5995 -5.96581 5.34066
head 13.6887 -1.88472 1.16004
rclavicle -1.17283e-014 2.22639e-014
rhumerus 1.82919 36.2731 -36.8829
rradius 104.784
rwrist -64.2439
rhand 5.84097 -49.4054
rfingers 7.12502
rthumb 31.1718 -76.774
lclavicle -1.17283e-014 2.22639e-014
lhumerus -25.7787 -30.9733 99.3015
lradius 90.1592
lwrist 3.78732
lhand -23.8845 -51.3126
lfingers 7.12502
lthumb 2.58893 -21.3486
rfemur 0 0 0
rtibia 0
rfoot 0 0
rtoes 0
lfemur -6.65421 -5.64171 -8.91692
ltibia 23.8028
lfoot -23.1192 12.532
ltoes -55.485
196
root -0.609482 18.7394 5.93138 2.85612 -1.11451 -5.2227
lowerback 6.45787 0.750694 -0.0572697
upperback 1.89664 0.941581 -2.54775
thorax -1.62302 0.471831 -2.66495
lowerneck -12.7806 -2.70591 0.300518
upperneck 33.6358 -5.94659 5.34972
head 13.7028 -1.86992 1.16107
rclavicle -1.33186e-014 -6.36111e-015
rhumerus 1.59661 34.6121 -36.8497
rradius 104.765
rwrist -65.2465
rhand 6.00031 -49.1947
rfingers 7.12502
rthumb 31.3236 -76.534
lclavicle -1.33186e-014 -6.36111e-015
lhumerus -24.9936 -31.4325 99.0299
lradius 89.2533
lwrist 4.27292
lhand -23.8868 -51.0658
lfingers 7.12502
lthumb 2.5867 -21.1018
rfemur 0 0 0
rtibia 0
rfoot 0 0
rtoes 0
lfemur -6.70658 -5.5677 -8.74561
ltibia 23.8073
lfoot -23.0776 12.5034
ltoes -55.4906
197
root -0.612252 18.7402 5.9279 2.9229 -1.13981 -5.38452
lowerback 6.4751 0.758996 0.146951
upperback 1.88366 0.966123 -2.50548
thorax -1.64213 0.483652 -2.73869
lowerneck -12.8757 -2.70138 0.275861
upperneck 33.7266 -5.96283 5.40653
head 13.7685 -1.86797 1.18561
rclavicle 1.51076e-014 0
rhumerus 1.46379 33.092 -36.7872
rradius 104.502
rwrist -65.5525
rhand 5.449 -49.2454
rfingers 7.12502
rthumb 30.7981 -76.6852
lclavicle 1.51076e-014 0
lhumerus -25.8065 -31.1621 99.0397
lradius 90.7979
lwrist 4.09394
lhand -22.9873 -49.4976
lfingers 7.12502
lthumb 3.45541 -19.5458
rfemur 0 0 0
rtibia 0
rfoot 0 0
rtoes 0
lfemur -6.79617 -5.55997 -8.53474
ltibia 23.804
lfoot -23.0522 12.4813
ltoes -55.3748
198
root -0.611753 18.7397 5.93107 2.89972 -1.19355 -5.33215
lowerback 6.48566 0.774755 0.135268
upperback 1.89894 0.986932 -2.48297
thorax -1.63188 0.494187 -2.71041
lowerneck -12.9471 -2.69927 0.262214
upperneck 33.8247 -5.94589 5.35005
head 13.8251 -1.86543 1.16851
rclavicle -7.55382e-015 2.8625e-014
rhumerus 1.50586 32.0475 -36.3964
rradius 104.064
rwrist -65.3676
rhand 4.42123 -49.6959
rfingers 7.12502
rthumb 29.8178 -77.316
lclavicle -7.55382e-015 2.8625e-014
lhumerus -25.8245 -31.1064 98.8879
lradius 91.2607
lwrist 3.81733
lhand -21.8163 -47.8144
lfingers 7.12502
lthumb 4.58612 -17.884
rfemur 0 0 0
rtibia 0
rfoot 0 0
rtoes 0
lfemur -6.73757 -5.61273 -8.6128
ltibia 23.8029
lfoot -23.1298 12.5318
ltoes -55.2987
199
root -0.611402 18.7403 5.93449 2.88709 -1.24763 -5.24101
lowerback 6.49308 0.788489 0.0434708
upperback 1.8885 0.999814 -2.439
thorax -1.64858 0.500441 -2.61444
lowerneck -12.9065 -2.68806 0.266028
upperneck 33.8526 -5.8915 5.23703
head 13.8207 -1.8562 1.13203
rclavicle -3.26007e-014 2.54444e-014
rhumerus 1.6618 31.5769 -35.7039
rradius 103.547
rwrist -65.3803
rhand 3.69091 -50.5882
rfingers 7.12502
rthumb 29.1206 -78.3312
lclavicle -3.26007e-014 2.54444e-014
lhumerus -25.8387 -31.0436 98.6556
lradius 91.7846
lwrist 3.28144
lhand -20.1892 -45.6827
lfingers 7.12502
lthumb 6.15713 -15.7922
rfemur 0 0 0
rtibia 0
rfoot 0 0
rtoes 0
lfemur -6.69116 -5.6365 -8.73608
ltibia 23.7938
lfoot -23.1665 12.6225
ltoes -55.3835
200
root -0.611685 18.7415 5.93564 2.91544 -1.31605 -5.19605
lowerback 6.53277 0.805268 0.0167612
upperback 1.8371 1.01981 -2.38852
thorax -1.72412 0.509568 -2.55014
lowerneck -12.8155 -2.67807 0.223975
upperneck 33.8181 -5.85135 5.21337
head 13.7833 -1.84988 1.137
rclavicle -1.03368e-014 -1.27222e-014
rhumerus 1.80849 31.6108 -34.8615
rradius 103.108
rwrist -65.8255
rhand 3.46881 -51.4558
rfingers 7.12502
rthumb 28.9084 -79.2353
lclavicle -1.03368e-014 -1.27222e-014
lhumerus -25.8782 -31.0797 98.2889
lradius 92.4212
lwrist 2.47837
lhand -18.2365 -43.15
lfingers 7.12502
lthumb 8.04205 -13.323
rfemur 0 0 0
rtibia 0
rfoot 0 0
rtoes 0
lfemur -6.69517 -5.5933 -8.79546
ltibia 23.775
lfoot -23.1339 12.7324
ltoes -55.5602
201
root -0.612442 18.7421 5.93842 2.92501 -1.40948 -5.14839
lowerback 6.57343 0.834287 0.0306028
upperback 1.81047 1.05867 -2.36569
thorax -1.77265 0.528413 -2.53852
lowerneck -12.7544 -2.69816 0.218726
upperneck 33.7503 -5.87513 5.21886
head 13.7408 -1.86305 1.13637
rclavicle 2.94201e-014 -3.49861e-014
rhumerus 1.90572 31.9714 -33.9713
rradius 102.878
rwrist -65.9136
rhand 3.28092 -51.9848
rfingers 7.12502
rthumb 28.729 -79.7948
lclavicle 2.94201e-014 -3.49861e-014
lhumerus -25.8263 -31.176 97.7441
lradius 93.1989
lwrist 1.49396
lhand -15.6421 -40.1712
lfingers 7.12502
lthumb 10.5454 -10.4557
rfemur 0 0 0
rtibia 0
rfoot 0 0
rtoes 0
lfemur -6.66729 -5.46121 -8.84904
ltibia 23.7647
lfoot -23.1198 12.7575
ltoes -55.6491
202
root -0.614515 18.7438 5.94307 3.01438 -1.48276 -5.07108
lowerback 6.47048 0.87646 0.00156965
upperback 1.80248 1.11445 -2.34971
thorax -1.72202 0.556576 -2.50797
lowerneck -12.7626 -2.74949 0.20236
upperneck 33.724 -5.96004 5.26134
head 13.7368 -1.89664 1.14266
rclavicle -1.92821e-014 -2.06736e-014
rhumerus 1.97534 32.5485 -32.9977
rradius 102.93
rwrist -64.904
rhand 3.24587 -52.3529
rfingers 7.12502
rthumb 28.6955 -80.1686
lclavicle -1.92821e-014 -2.06736e-014
lhumerus -25.7265 -31.3228 97.0965
lradius 94.1435
lwrist 0.455498
lhand -12.4059 -37.0559
lfingers 7.12502
lthumb 13.6659 -7.52459
rfemur 0 0 0
rtibia 0
rfoot 0 0
rtoes 0
lfemur -6.73167 -5.36803 -8.92487
ltibia 23.7619
lfoot -23.1271 12.7762
ltoes -55.656
